<?xml version="1.0" encoding="utf-8"?>
<!-- Generator: Adobe Illustrator 16.0.0, SVG Export Plug-In . SVG Version: 6.00 Build 0)  -->
<!DOCTYPE svg PUBLIC "-//W3C//DTD SVG 1.1//EN" "http://www.w3.org/Graphics/SVG/1.1/DTD/svg11.dtd">
<svg version="1.1" id="Capa_1" xmlns="http://www.w3.org/2000/svg" xmlns:xlink="http://www.w3.org/1999/xlink" x="0px" y="0px"
	 width="423.167px" height="203px" viewBox="0 0 423.167 203" enable-background="new 0 0 423.167 203" xml:space="preserve">
<polygon fill="#FFFFFF" stroke="#000000" stroke-width="0.5" stroke-miterlimit="10" points="174.467,151.307 94.596,201.305 
	87.865,201.305 81.262,201.305 1.262,151.307 1.124,1.306 7.5,1.306 81.262,51.305 87.866,51.305 94.596,51.305 167.834,1.306 
	174.329,1.306 "/>
<polygon fill="#91181D" stroke="#000000" stroke-width="0.5" stroke-miterlimit="10" points="167.872,148.683 93.939,192.416 
	87.71,192.416 81.598,192.416 7.546,148.683 7.418,17.473 13.32,17.473 81.598,61.208 87.71,61.208 93.939,61.208 161.731,17.473 
	167.745,17.473 "/>
<g>
	<path fill="#631719" d="M167.87,146.683c0.001,1.1-0.772,2.458-1.72,3.019l-70.489,41.696c-0.947,0.561-2.622,1.019-3.722,1.019
		H89.71c-1.1,0-2-0.9-2-2l0-127.208c0-1.1,0.9-2,2-2h2.229c1.1,0,2.756-0.488,3.681-1.084l64.431-41.567
		c0.925-0.597,2.581-1.084,3.681-1.084h2.014c1.1,0,2.001,0.9,2.002,2L167.87,146.683z"/>
</g>
<g>
	<path fill="#FFFFFF" stroke="#EDEEF0" stroke-width="0.25" stroke-miterlimit="10" d="M122.365,135.038
		c0,0,3.338-9.661,5.008-15.171c1.668-5.509,3.312-11.286,4.93-17.33c1.616-6.044,3.209-12.292,4.773-18.749
		c1.565-6.454,3.076-12.89,4.539-19.303h15.493c-3.756,16.447-7.747,31.659-11.973,45.638c-4.226,13.979-9.053,27.259-14.476,39.84
		h-15.181L122.365,135.038z"/>
</g>
<g>
	<path fill="#FFFFFF" stroke="#EDEEF0" stroke-width="0.25" stroke-miterlimit="10" d="M60.106,149.963H44.926
		c-5.423-12.581-10.25-25.86-14.476-39.84c-4.226-13.979-8.217-29.19-11.973-45.638h15.493c1.463,6.414,2.974,12.849,4.539,19.303
		c1.564,6.457,3.157,12.705,4.773,18.749c1.618,6.044,3.262,11.821,4.93,17.33c1.67,5.51,5.008,15.171,5.008,15.171L60.106,149.963z
		"/>
</g>
<g>
	<path fill="#F7F7F8" stroke="#AEADB3" stroke-width="0.25" stroke-miterlimit="10" d="M87.868,91.991
		c-4.382,11.02-8.818,21.215-13.302,30.589c-4.487,9.375-13.459,27.383-13.459,27.383H45.926l9.078-14.925
		c0,0,8.607-18.11,13.302-28.431C73.001,96.289,77.383,85.62,81.452,74.6h13.146c4.069,11.02,8.503,21.689,13.303,32.008
		c4.798,10.32,13.459,28.431,13.459,28.431l8.301,14.925h-15.187c0,0-9.077-18.008-13.459-27.383
		C96.633,113.206,92.25,103.011,87.868,91.991z"/>
</g>
<g>
	<path d="M183.29,120.377c0-4.978,0.72-9.323,2.164-13.04c1.442-3.715,3.354-6.798,5.734-9.252c2.382-2.452,5.122-4.291,8.226-5.519
		c3.1-1.226,6.276-1.839,9.522-1.839c7.574,0,13.38,2.363,17.421,7.087c4.04,4.726,6.061,11.922,6.061,21.589
		c0,0.433,0,0.991,0,1.677s-0.038,1.316-0.108,1.894h-38.523c0.433,5.844,2.128,10.28,5.087,13.31
		c2.956,3.03,7.574,4.545,13.85,4.545c3.535,0,6.511-0.306,8.928-0.92c2.416-0.612,4.237-1.207,5.465-1.786l1.406,8.441
		c-1.228,0.649-3.372,1.336-6.438,2.056c-3.066,0.721-6.547,1.082-10.441,1.082c-4.906,0-9.145-0.74-12.715-2.218
		c-3.571-1.478-6.511-3.518-8.819-6.113c-2.31-2.598-4.022-5.682-5.141-9.252C183.848,128.547,183.29,124.634,183.29,120.377z
		 M221.922,114.858c0.07-4.545-1.066-8.279-3.41-11.201c-2.344-2.921-5.571-4.382-9.684-4.382c-2.311,0-4.348,0.451-6.115,1.353
		c-1.768,0.903-3.264,2.075-4.49,3.517c-1.228,1.444-2.183,3.103-2.867,4.978c-0.687,1.876-1.137,3.787-1.353,5.736H221.922z"/>
	<path d="M256.979,94.622c1.226-0.792,3.085-1.623,5.573-2.489c2.489-0.866,5.356-1.298,8.604-1.298
		c4.039,0,7.628,0.722,10.767,2.164c3.138,1.444,5.789,3.463,7.953,6.06c2.164,2.597,3.805,5.699,4.923,9.306
		c1.118,3.608,1.679,7.574,1.679,11.903c0,4.545-0.669,8.64-2.002,12.282c-1.337,3.643-3.229,6.728-5.682,9.252
		c-2.453,2.525-5.41,4.474-8.873,5.842c-3.463,1.37-7.358,2.057-11.688,2.057c-4.69,0-8.837-0.324-12.443-0.974
		c-3.608-0.649-6.566-1.298-8.874-1.947V66.163l10.063-1.732V94.622z M256.979,139.638c1.01,0.289,2.436,0.56,4.274,0.812
		c1.84,0.254,4.129,0.379,6.872,0.379c5.41,0,9.738-1.785,12.985-5.356c3.246-3.571,4.868-8.638,4.868-15.203
		c0-2.885-0.288-5.59-0.864-8.116c-0.579-2.524-1.516-4.707-2.814-6.546c-1.299-1.84-2.976-3.282-5.031-4.329
		c-2.057-1.045-4.527-1.569-7.412-1.569c-2.743,0-5.268,0.47-7.575,1.407c-2.31,0.938-4.077,1.912-5.303,2.921V139.638z"/>
	<path d="M323.745,141.152c4.112,0,7.159-0.541,9.145-1.623c1.983-1.082,2.976-2.813,2.976-5.193c0-2.451-0.974-4.399-2.923-5.844
		c-1.947-1.443-5.158-3.065-9.63-4.87c-2.164-0.865-4.238-1.748-6.222-2.65c-1.985-0.9-3.698-1.966-5.141-3.192
		c-1.444-1.227-2.597-2.706-3.463-4.437c-0.865-1.731-1.299-3.858-1.299-6.384c0-4.978,1.841-8.928,5.52-11.849
		c3.68-2.922,8.692-4.382,15.041-4.382c1.586,0,3.174,0.091,4.761,0.27c1.587,0.181,3.066,0.397,4.437,0.649
		c1.37,0.254,2.579,0.524,3.626,0.812c1.045,0.289,1.856,0.541,2.435,0.758l-1.839,8.657c-1.083-0.577-2.778-1.172-5.087-1.786
		c-2.31-0.612-5.086-0.92-8.332-0.92c-2.813,0-5.267,0.56-7.357,1.678c-2.094,1.119-3.139,2.867-3.139,5.248
		c0,1.228,0.232,2.31,0.703,3.246c0.469,0.938,1.19,1.786,2.165,2.543c0.974,0.758,2.181,1.461,3.624,2.11
		c1.443,0.648,3.174,1.336,5.194,2.055c2.668,1.012,5.048,2.003,7.142,2.978c2.092,0.974,3.878,2.109,5.357,3.408
		c1.478,1.298,2.613,2.866,3.408,4.708c0.793,1.839,1.189,4.094,1.189,6.763c0,5.193-1.931,9.127-5.789,11.794
		c-3.859,2.671-9.359,4.004-16.502,4.004c-4.978,0-8.873-0.416-11.687-1.244s-4.726-1.461-5.734-1.894l1.839-8.656
		c1.153,0.433,2.993,1.081,5.519,1.947C316.206,140.72,319.561,141.152,323.745,141.152z"/>
	<path d="M363.892,81.961c-1.805,0-3.338-0.595-4.6-1.785c-1.263-1.19-1.894-2.795-1.894-4.815c0-2.019,0.631-3.625,1.894-4.815
		c1.262-1.19,2.795-1.786,4.6-1.786c1.803,0,3.335,0.595,4.599,1.786c1.261,1.19,1.894,2.796,1.894,4.815
		c0,2.021-0.633,3.625-1.894,4.815C367.227,81.366,365.694,81.961,363.892,81.961z M368.977,148.403h-10.063v-56.27h10.063V148.403z
		"/>
	<path d="M399.384,141.152c4.112,0,7.159-0.541,9.144-1.623c1.983-1.082,2.976-2.813,2.976-5.193c0-2.451-0.974-4.399-2.922-5.844
		c-1.947-1.443-5.158-3.065-9.63-4.87c-2.164-0.865-4.239-1.748-6.223-2.65c-1.984-0.9-3.697-1.966-5.141-3.192
		s-2.596-2.706-3.462-4.437c-0.865-1.731-1.299-3.858-1.299-6.384c0-4.978,1.84-8.928,5.519-11.849
		c3.68-2.922,8.693-4.382,15.041-4.382c1.587,0,3.175,0.091,4.762,0.27c1.586,0.181,3.065,0.397,4.437,0.649
		c1.37,0.254,2.578,0.524,3.625,0.812c1.045,0.289,1.857,0.541,2.435,0.758l-1.839,8.657c-1.082-0.577-2.778-1.172-5.086-1.786
		c-2.31-0.612-5.086-0.92-8.333-0.92c-2.813,0-5.267,0.56-7.357,1.678c-2.094,1.119-3.139,2.867-3.139,5.248
		c0,1.228,0.233,2.31,0.703,3.246c0.47,0.938,1.191,1.786,2.165,2.543c0.974,0.758,2.181,1.461,3.625,2.11
		c1.442,0.648,3.174,1.336,5.193,2.055c2.669,1.012,5.049,2.003,7.143,2.978c2.092,0.974,3.877,2.109,5.356,3.408
		c1.478,1.298,2.613,2.866,3.408,4.708c0.793,1.839,1.19,4.094,1.19,6.763c0,5.193-1.931,9.127-5.789,11.794
		c-3.86,2.671-9.36,4.004-16.502,4.004c-4.978,0-8.873-0.416-11.687-1.244c-2.814-0.828-4.726-1.461-5.735-1.894l1.839-8.656
		c1.153,0.433,2.993,1.081,5.519,1.947C391.844,140.72,395.199,141.152,399.384,141.152z"/>
</g>
</svg>
